<?xml version="1.0" standalone="no"?>
<!DOCTYPE svg PUBLIC "-//W3C//DTD SVG 20010904//EN"
 "http://www.w3.org/TR/2001/REC-SVG-20010904/DTD/svg10.dtd">
<svg version="1.0" xmlns="http://www.w3.org/2000/svg"
 width="1024.000000pt" height="1024.000000pt" viewBox="0 0 1024.000000 1024.000000"
 preserveAspectRatio="xMidYMid meet">
<metadata>
Created by potrace 1.14, written by Peter Selinger 2001-2017
</metadata>
<g transform="translate(0.000000,1024.000000) scale(0.100000,-0.100000)"
fill="#000000" stroke="none">
<path d="M2228 8418 l1022 -1023 -109 -109 -109 -109 -1017 1017 c-559 559
-1019 1016 -1022 1016 -3 0 -3 -15 0 -32 4 -18 9 -64 12 -103 4 -38 8 -81 10
-94 3 -14 7 -52 10 -86 3 -33 8 -69 10 -80 2 -11 4 -33 4 -50 1 -26 120 -149
898 -927 l896 -897 -40 -53 c-22 -29 -63 -86 -90 -125 l-51 -73 -776 776 -776
776 5 -53 c3 -30 8 -72 11 -94 4 -38 9 -87 19 -180 2 -22 7 -67 11 -101 l6
-61 668 -668 668 -667 -70 -142 c-39 -77 -72 -143 -74 -145 -1 -2 -258 252
-569 563 l-566 567 6 -63 c3 -35 7 -74 10 -88 2 -14 7 -54 10 -90 4 -36 8 -76
10 -90 2 -14 7 -54 10 -90 l6 -65 482 -482 481 -482 -12 -33 c-6 -18 -27 -91
-47 -162 -19 -71 -37 -131 -38 -133 -2 -2 -185 178 -406 399 l-403 402 7 -74
c3 -41 8 -76 10 -80 2 -3 6 -41 10 -85 3 -44 8 -87 10 -95 2 -8 6 -46 10 -85
l6 -70 342 -342 c289 -289 342 -347 341 -370 0 -16 -3 -59 -7 -98 -16 -152
-18 -196 -18 -370 -1 -210 7 -324 36 -557 6 -44 13 -81 41 -223 21 -108 18
-97 53 -226 113 -419 315 -848 565 -1199 505 -710 1234 -1227 2056 -1460 60
-17 118 -33 127 -35 10 -2 56 -12 103 -23 47 -11 105 -23 130 -27 24 -4 47 -8
50 -10 3 -1 30 -6 60 -9 30 -4 66 -8 80 -10 130 -21 266 -29 490 -30 291 -1
456 15 730 69 13 2 41 7 61 10 20 3 51 10 70 16 19 6 45 12 59 15 110 22 386
113 555 184 97 40 289 133 370 180 457 260 766 520 1123 947 70 84 272 371
272 387 0 3 17 31 38 63 21 32 64 108 95 170 l57 111 -440 220 -441 220 -39
-78 c-198 -393 -520 -762 -898 -1027 -59 -41 -116 -79 -127 -84 -11 -5 -40
-22 -65 -38 -193 -124 -600 -280 -845 -325 -145 -27 -260 -43 -370 -52 -62 -5
-374 -4 -430 1 -376 36 -706 129 -1025 289 -678 341 -1182 925 -1420 1646 -27
81 -67 227 -77 280 -2 14 -8 42 -13 63 -4 21 -6 37 -4 35 2 -2 272 -271 601
-598 698 -695 740 -733 957 -869 139 -87 457 -231 510 -231 8 0 17 -4 20 -9 3
-5 21 -11 40 -13 31 -3 -77 107 -1071 1101 l-1105 1105 6 121 c8 150 14 223
22 254 5 22 150 -120 1354 -1324 l1348 -1348 174 6 c95 4 182 9 193 11 11 2
25 5 32 5 7 1 -671 685 -1507 1520 l-1520 1520 44 128 c25 70 51 143 58 160
l14 33 1640 -1640 1639 -1640 85 29 c47 16 117 44 157 62 l72 32 -1724 1725
c-949 948 -1725 1726 -1725 1729 0 5 125 206 149 240 16 22 51 -13 1798 -1759
l1781 -1781 54 39 c29 21 83 63 121 92 58 47 66 57 55 70 -7 9 -820 823 -1807
1809 l-1793 1794 103 105 c57 57 108 104 114 104 5 0 821 -811 1813 -1802
l1802 -1803 28 30 c15 17 57 71 94 121 l67 92 -1781 1780 -1780 1781 46 33
c26 18 85 57 133 86 l86 52 1726 -1726 1726 -1726 29 64 c16 35 43 104 61 154
l33 91 -1639 1639 c-902 901 -1639 1642 -1639 1646 0 5 8 8 18 8 10 0 22 4 27
9 12 10 249 91 267 91 7 0 696 -683 1530 -1517 1377 -1377 1518 -1515 1519
-1488 1 17 3 44 5 60 2 17 6 95 10 175 l6 145 -1350 1350 c-743 742 -1349
1351 -1348 1352 6 7 212 24 321 28 l80 2 1104 -1103 c607 -607 1105 -1103
1107 -1102 6 7 -86 262 -122 338 -75 160 -108 219 -193 345 -104 154 -170 225
-786 843 -341 343 -622 626 -625 629 -3 3 11 3 30 -1 19 -4 46 -10 60 -12 331
-65 729 -237 1020 -442 197 -139 439 -363 581 -538 114 -142 263 -373 329
-512 14 -29 28 -52 32 -52 7 0 867 427 875 434 5 4 -126 246 -186 343 -78 129
-203 303 -306 429 -292 354 -663 666 -1060 892 -78 44 -297 153 -347 173 -28
11 -70 28 -92 38 -23 11 -95 38 -161 60 -66 23 -138 48 -160 56 -85 30 -376
95 -585 130 -8 2 -46 6 -85 10 -38 4 -104 10 -145 15 -71 7 -560 5 -625 -3
-16 -2 -63 -7 -104 -12 l-74 -7 -346 345 -346 345 -78 7 c-43 4 -88 8 -100 10
-12 2 -49 6 -82 10 -33 3 -78 8 -100 10 -110 14 -117 14 -105 0 6 -7 187 -189
402 -404 233 -233 385 -392 377 -395 -134 -38 -316 -86 -324 -86 -5 0 -226
216 -489 480 -472 473 -480 480 -520 481 -23 0 -50 2 -61 5 -11 2 -49 6 -83
10 -35 3 -71 7 -80 9 -17 3 -133 16 -186 20 -24 2 61 -87 538 -564 l567 -567
-147 -73 -148 -72 -665 664 c-366 366 -675 668 -686 670 -19 6 -58 10 -175 22
-74 8 -217 24 -259 30 -19 3 -33 3 -30 0 2 -2 351 -352 776 -777 l771 -773
-51 -35 c-29 -19 -86 -60 -127 -91 l-76 -57 -896 897 c-893 893 -897 897 -940
899 -24 2 -54 5 -68 7 -35 5 -129 17 -165 20 -103 9 -173 17 -190 22 -11 2
440 -456 1003 -1019z"/>
</g>
</svg>
